<?xml version="1.0" encoding="utf-8"?>
<!-- Generator: Adobe Illustrator 26.0.3, SVG Export Plug-In . SVG Version: 6.00 Build 0)  -->
<svg version="1.0" id="katman_1" xmlns="http://www.w3.org/2000/svg" xmlns:xlink="http://www.w3.org/1999/xlink" x="0px" y="0px"
	 viewBox="0 0 600 450" style="enable-background:new 0 0 600 450;" xml:space="preserve">
<style type="text/css">
	.st0{fill:url(#SVGID_1_);}
	.st1{fill:#597196;}
</style>
<radialGradient id="SVGID_1_" cx="-7.9838" cy="450.7137" r="2.8436" gradientTransform="matrix(-25.1964 -35.6045 -54.1087 38.2912 24342.7715 -17267.584)" gradientUnits="userSpaceOnUse">
	<stop  offset="1.000000e-04" style="stop-color:#6BC1B1"/>
	<stop  offset="1" style="stop-color:#4594D1"/>
</radialGradient>
<path class="st0" d="M196.5,192c-6.4-13.4-19.3-22.7-34-23.8c-7.2-0.7-14.6,0.5-21,3.8c-4.3,2.2-8.2,5.1-11.4,8.7
	c-6.7-7.6-16.1-12.6-26.4-13.1c-21.5-1.3-39.9,12.6-44.5,34.2c-2.7,12.9,0.2,26.4,6.2,37.8c5.9,11.2,14.6,21.2,25.8,27
	c7.8,3.8,15.2-5.9,9.5-12.6c-1.8-2-3.5-4.2-5-6.5c-1.4-2.2-2.7-4.4-3.9-6.7c-3.2-6.6-5.6-14.1-6.1-21.4c-0.3-4.7,0.3-8.7,2.3-12.7
	c1.8-3.8,4.8-7,8.7-8.6c6.1-2.3,12.4-1.1,17,3.9c3,3.1,4.4,7.4,5.9,11.4c0.1,0.3,0.2,0.6,0.4,0.8c3,9.4,17,9.6,19.6-1.1
	c0.1-0.4,0.2-0.7,0.2-1.1c0-0.1,0-0.1,0-0.2c0-0.1,0-0.1,0-0.2c0.2-1,0.5-1.9,0.8-2.8c1-2.9,2.8-5.6,4.8-7.7
	c3.1-3.2,7.1-5.1,11.5-4.7c2.4,0.1,5.2,0.8,7.2,1.9c11.1,6,10,21.9,5.2,32.4c-3.4,7.3-8.7,13.5-14.7,18.8c-1.5,1.3-3.2,2.7-4.7,4
	c-7,5.4-8.8,15.7-3.3,23.1c5.9,8.1,17.7,8.5,24.5,1.3c1.3-1.3,2.6-2.7,3.9-4.1c12.8-14.3,24.4-35.5,26.2-55
	C202.2,209.5,200.5,200.4,196.5,192L196.5,192z"/>
<path class="st1" d="M285.6,202.7c5.2,0,9.5,1.7,12.6,5c3.2,3.3,4.8,7.8,4.8,13.4v27.3h-13.7v-26.1c0-2.3-0.6-4-1.7-5.3
	c-1.1-1.3-2.8-2-4.9-2c-2.3,0-4,0.7-5.3,2.2c-1.3,1.5-1.9,3.5-1.9,6.1v25.1h-13.7v-26.1c0-2.3-0.6-4-1.7-5.3c-1.1-1.3-2.8-2-4.9-2
	c-2.3,0-4,0.7-5.3,2.2c-1.3,1.5-1.9,3.5-1.9,6.1v25.1h-13.7v-44.4h13.7v4.1c2.5-3.6,6.6-5.3,12.3-5.3c5.3,0,9.3,2,12,5.9
	C275.2,204.6,279.6,202.7,285.6,202.7z"/>
<path class="st1" d="M351.2,242.8c-4.7,4.5-10.4,6.8-17.2,6.8c-6.8,0-12.5-2.3-17.2-6.8c-4.7-4.5-7.1-10.1-7.1-16.7
	s2.3-12.1,7.1-16.7c4.7-4.5,10.4-6.8,17.2-6.8c6.8,0,12.5,2.3,17.2,6.8c4.7,4.5,7,10.1,7,16.7S355.9,238.3,351.2,242.8z
	 M326.5,233.7c2,2,4.5,2.9,7.5,2.9c3,0,5.5-1,7.5-2.9c2-2,3-4.5,3-7.6c0-3.1-1-5.6-3-7.6c-2-2-4.5-2.9-7.5-2.9c-3,0-5.5,1-7.5,2.9
	c-2,2-3,4.5-3,7.6C323.4,229.2,324.5,231.7,326.5,233.7z"/>
<path class="st1" d="M378.9,248.4h-14.6v-44.7h13.9v10.8c2.2-8.2,8-11.9,13.5-11.9c1.8,0,3.9,0.1,6.3,1.2l-3.6,14.1
	c-3-1.1-5.2-1.1-6.6-1.1c-5.5,0-8.9,3.2-8.9,16.3L378.9,248.4L378.9,248.4z"/>
<path class="st1" d="M434.4,203.9h13.7v44.4h-13.7v-5.3c-1.7,4.5-7.8,6.5-13.6,6.5s-11.2-2.3-15.5-6.8c-4.3-4.5-6.4-10.1-6.4-16.7
	c0-6.6,2.1-12.1,6.4-16.7c4.3-4.5,9.4-6.9,15.5-6.8c10.4,0.2,13.9,5.1,13.6,7.6V203.9z M415.7,234c2,2,4.6,2.9,7.9,2.9
	c3.2,0,5.9-1,7.9-2.9c2-2,3-4.6,3-7.9c0-3.3-1-6-3-7.9c-2-2-4.6-2.9-7.9-2.9c-3.2,0-5.9,1-7.9,2.9c-2,2-3,4.6-3,7.9
	C412.6,229.5,413.6,232.1,415.7,234z"/>
<path class="st1" d="M458.3,248.4v-64.9H472v64.9H458.3z"/>
<path class="st1" d="M495,197.7c-1.6,1.6-3.6,2.4-5.8,2.4c-2.3,0-4.2-0.8-5.8-2.4c-1.6-1.6-2.4-3.5-2.4-5.6s0.8-4.1,2.4-5.6
	c1.6-1.6,3.6-2.4,5.8-2.4s4.2,0.8,5.8,2.4c1.6,1.6,2.4,3.5,2.4,5.6S496.7,196.1,495,197.7z M482.4,248.4v-44.4h13.7v44.4H482.4z"/>
<path class="st1" d="M519.2,216.9c0,0.9,0.8,1.6,2.3,2.2c1.6,0.6,3.4,1.1,5.6,1.7c2.2,0.6,4.4,1.3,6.6,2.2c2.2,0.9,4.1,2.4,5.6,4.4
	c1.6,2,2.3,4.6,2.3,7.7c0,4.8-1.8,8.4-5.5,10.9c-3.7,2.5-8.2,3.7-13.5,3.7c-9.6,0-16.2-3.5-19.7-10.6l11.9-6.6
	c1.2,3.5,3.8,5.2,7.8,5.2c3.3,0,4.9-0.9,4.9-2.8c0-0.9-0.8-1.6-2.3-2.2c-1.6-0.6-3.4-1.2-5.6-1.7c-2.2-0.6-4.4-1.3-6.6-2.2
	c-2.2-0.9-4.1-2.4-5.6-4.3c-1.6-2-2.3-4.4-2.3-7.2c0-4.6,1.7-8.2,5.2-10.8c3.4-2.5,7.7-3.8,12.8-3.8c3.8,0,7.2,0.8,10.3,2.4
	c3.1,1.6,5.6,4,7.5,7.1l-11.7,6.1c-1.5-2.6-3.5-3.9-6.1-3.9C520.4,214.4,519.2,215.2,519.2,216.9L519.2,216.9z"/>
</svg>
